<svg xmlns="http://www.w3.org/2000/svg" width="58" height="58" fill="none"><path fill="#7AC751" d="m53.94 32.505-1.502-6.008a.908.908 0 0 0 .718-.888v-.969a3.819 3.819 0 0 0-3.814-3.814h-6.84v-1.998a1.879 1.879 0 0 0-1.878-1.877h-12.72l7.73-3.092a.908.908 0 0 0-.675-1.686l-6.33 2.531c1.93-1.237 3.838-2.599 4.564-3.552a4.234 4.234 0 0 0-.798-5.927 4.234 4.234 0 0 0-5.928.798c-1.033 1.355-2.397 5.162-3.28 7.845-.882-2.682-2.245-6.49-3.278-7.845a4.234 4.234 0 0 0-5.928-.798 4.234 4.234 0 0 0-.798 5.928c.726.952 2.634 2.314 4.563 3.551l-6.33-2.531a.908.908 0 1 0-.674 1.686l7.73 3.092H5.752a1.879 1.879 0 0 0-1.877 1.877v16.468a.908.908 0 0 0 1.816 0V18.828a.06.06 0 0 1 .06-.06h34.873a.06.06 0 0 1 .06.06v16.468a.908.908 0 0 0 1.817 0v-1.03h10.718a2.971 2.971 0 0 1 2.822 2.06h-2.824a.908.908 0 0 0-.908.907v1.938a2.849 2.849 0 0 0 2.845 2.845h1.03v3.996h-2.375a5.76 5.76 0 0 0-5.435-3.875 5.76 5.76 0 0 0-5.436 3.875h-.437V39.17a.908.908 0 0 0-1.816 0v6.842H21.843a5.76 5.76 0 0 0-5.436-3.875 5.76 5.76 0 0 0-5.435 3.875h-5.22a.06.06 0 0 1-.061-.06v-1.999h3.935a.908.908 0 0 0 0-1.816H.908a.908.908 0 1 0 0 1.816h2.967v1.998c0 1.035.842 1.877 1.877 1.877h4.905l-.001.06a5.758 5.758 0 0 0 5.751 5.752 5.758 5.758 0 0 0 5.752-5.751l-.002-.06h20.466l-.001.06a5.758 5.758 0 0 0 5.752 5.751 5.758 5.758 0 0 0 5.751-5.751l-.002-.06h2.969a.908.908 0 0 0 .908-.91v-9.686a4.79 4.79 0 0 0-4.06-4.728ZM19.586 13.714c-3.582-2.226-4.644-3.25-4.96-3.663a2.416 2.416 0 0 1 .456-3.382 2.41 2.41 0 0 1 3.382.455c.879 1.152 2.255 5.03 3.163 7.823a99.872 99.872 0 0 1-2.04-1.233Zm5.163 1.233c.908-2.794 2.284-6.67 3.162-7.823a2.416 2.416 0 0 1 3.382-.455 2.416 2.416 0 0 1 .456 3.382c-.315.412-1.377 1.437-4.96 3.663-.722.45-1.427.872-2.04 1.233ZM42.5 22.642h6.841a2 2 0 0 1 1.998 1.998v.06h-8.839v-2.058Zm0 9.808v-5.933h8.07l1.483 5.933h-9.553ZM16.407 51.824a3.94 3.94 0 0 1-3.935-3.935 3.94 3.94 0 0 1 3.935-3.936 3.94 3.94 0 0 1 3.935 3.936 3.94 3.94 0 0 1-3.935 3.935Zm31.967 0a3.94 3.94 0 0 1-3.936-3.935 3.94 3.94 0 0 1 3.936-3.936 3.94 3.94 0 0 1 3.935 3.936 3.94 3.94 0 0 1-3.935 3.935Zm7.81-11.624h-1.03a1.03 1.03 0 0 1-1.029-1.03v-1.029h2.059V40.2Z"/><path fill="#7AC751" d="M16.407 46.012a1.879 1.879 0 0 0-1.876 1.877c0 1.034.841 1.876 1.876 1.876a1.879 1.879 0 0 0 1.877-1.876 1.879 1.879 0 0 0-1.877-1.877ZM48.373 46.012a1.879 1.879 0 0 0-1.876 1.877c0 1.034.842 1.876 1.876 1.876a1.879 1.879 0 0 0 1.877-1.876 1.879 1.879 0 0 0-1.877-1.877ZM37.718 42.137H24.157a.908.908 0 1 0 0 1.816h13.561a.908.908 0 0 0 0-1.816ZM14.47 38.262H2.846a.908.908 0 0 0 0 1.817H14.47a.908.908 0 0 0 0-1.817ZM14.47 24.7h-3.875a.908.908 0 0 0-.908.909v7.75a.908.908 0 1 0 1.816 0V30.39h1.998a.908.908 0 0 0 0-1.816h-1.998v-2.058h2.967a.908.908 0 0 0 0-1.817ZM21.616 30.817a3.33 3.33 0 0 0 1.511-2.787 3.334 3.334 0 0 0-3.33-3.33h-2.421a.908.908 0 0 0-.909.909v7.75a.908.908 0 1 0 1.817 0V31.36h1.512l1.667 2.502a.907.907 0 1 0 1.511-1.008l-1.358-2.037Zm-1.819-1.273h-1.513v-3.027h1.513c.835 0 1.514.679 1.514 1.513 0 .835-.679 1.514-1.514 1.514ZM29 32.45h-2.967v-2.062c.02.002.04.004.06.004h1.938a.908.908 0 0 0 0-1.817h-1.937l-.06.003v-2.061H29a.908.908 0 0 0 0-1.817h-3.875a.908.908 0 0 0-.908.909v7.75c0 .5.406.907.908.907H29a.908.908 0 0 0 0-1.816ZM35.781 32.45h-2.967v-2.058h1.03a.908.908 0 0 0 0-1.817h-1.03v-2.058h2.967a.908.908 0 0 0 0-1.817h-3.875a.908.908 0 0 0-.908.909v7.75c0 .5.407.907.908.907h3.875a.908.908 0 0 0 0-1.816Z"/></svg>
