<svg xmlns="http://www.w3.org/2000/svg" width="58" height="58" fill="none"><path fill="#7AC751" d="M49.96 23.975h-.143v-3.517C49.817 9.159 40.658 0 29.36 0 18.061 0 8.901 9.16 8.901 20.458v3.517h-.86c-3.16 0-5.6 2.8-5.6 6.03v8.973a5.67 5.67 0 0 0 5.6 5.814h5.31a1.364 1.364 0 0 0 1.293-1.508V25.699c0-.861-.502-1.723-1.292-1.723h-1.58v-3.517c0-9.713 7.875-17.587 17.587-17.587 9.713 0 17.587 7.874 17.587 17.587v3.517h-1.58c-.789 0-1.291.861-1.291 1.723v17.587a1.364 1.364 0 0 0 1.292 1.507h1.65l-.143.215a11.341 11.341 0 0 1-9.116 4.522 7.106 7.106 0 0 0-14.07 1.364A7.178 7.178 0 0 0 30.867 58a7.394 7.394 0 0 0 5.168-2.225 6.318 6.318 0 0 0 1.723-3.446 14.213 14.213 0 0 0 11.413-5.67l1.364-2.01c3.087-.216 5.025-2.154 5.025-4.954v-8.973c0-3.086-2.297-6.747-5.6-6.747ZM11.774 41.921H8.04a2.8 2.8 0 0 1-2.728-2.943v-8.973c0-1.651 1.149-3.159 2.728-3.159h3.733v15.075Zm22.18 11.844a4.235 4.235 0 0 1-3.086 1.364 4.379 4.379 0 0 1-4.307-4.235 4.235 4.235 0 1 1 8.47-.004v.004a3.805 3.805 0 0 1-1.077 2.87Zm18.735-14.07c0 1.939-1.866 2.226-2.727 2.226h-3.015V26.846h3.015c1.579 0 2.727 2.226 2.727 3.877v8.973Z"/></svg>