<svg xmlns="http://www.w3.org/2000/svg" width="60" height="60" fill="none"><mask id="a" width="60" height="60" x="0" y="0" fill="#000" maskUnits="userSpaceOnUse"><path fill="#fff" d="M0 0h60v60H0z"/><path d="M7.425 18.725a2.892 2.892 0 0 0-1.592 2.573v6.767c0 1.068.866 1.933 1.934 1.933v26.1a2.9 2.9 0 0 0 2.9 2.9h38.666a2.9 2.9 0 0 0 2.9-2.9v-26.1a1.933 1.933 0 0 0 1.934-1.933v-6.767a2.892 2.892 0 0 0-1.591-2.573c4.021-2.578 6.218-7.391 6.341-7.667a.967.967 0 0 0-.884-1.36h-3.866V5.832a.967.967 0 0 0-1.587-.743l-3.227 2.695a15.703 15.703 0 0 0-6.4-6.316 3.76 3.76 0 0 0-2.014-.463C34.464 1.41 31.363 6.643 30 10.182c-1.369-3.535-4.47-8.754-10.939-9.158-.7-.04-1.4.119-2.014.458a15.71 15.71 0 0 0-6.393 6.301L7.42 5.088a.967.967 0 0 0-1.586.744v3.866H1.967a.967.967 0 0 0-.884 1.36c.123.276 2.32 5.089 6.342 7.667Zm15.808 1.607v7.733H7.768v-6.767c0-.533.433-.966.966-.966h14.5Zm1.866-5.688a13.831 13.831 0 0 1-4.465-7.434c3.054 1.338 4.65 4.981 5.228 6.603a4.853 4.853 0 0 0-.763.83Zm1.035 2.788a2.9 2.9 0 0 1 2.9-2.9h1.933a2.9 2.9 0 0 1 2.9 2.9v.966h-7.733v-.966Zm8.7 10.633h-9.667v-7.733h9.666v7.733Zm-.696-14.252c.58-1.622 2.175-5.265 5.228-6.603a13.823 13.823 0 0 1-4.465 7.434 4.853 4.853 0 0 0-.763-.83ZM9.7 56.098v-26.1h15.467v27.067h-14.5a.967.967 0 0 1-.967-.967Zm17.4.967V29.998h5.8v27.067h-5.8Zm23.2-.967a.967.967 0 0 1-.966.967h-14.5V29.998H50.3v26.1Zm.967-35.766c.534 0 .966.433.966.966v6.767H36.767v-7.733h14.5Zm1.933-8.7h3.233c-1.344 2.313-4.519 6.766-9.033 6.766h-2.165a20.703 20.703 0 0 0 4.284-4.785 4.801 4.801 0 0 0 .593-3.944l2.121-1.77v2.766c0 .534.433.967.967.967Zm-12.14-8.7c.34-.015.678.066.974.234 1.425.773 4.88 2.982 6.18 6.877a2.893 2.893 0 0 1-.313 2.514c-1.08 1.652-3.331 4.576-6.369 5.841H35.8v-.966c0-.322-.032-.643-.096-.958 3.963-2.803 5.337-7.683 5.751-9.729a1.43 1.43 0 0 0-.435-1.341 1.455 1.455 0 0 0-1.397-.336c-4.204 1.184-6.33 5.466-7.195 7.782a4.776 4.776 0 0 0-1.228-.227c.714-2.673 3.144-9.268 9.86-9.691Zm-29.273 7.125c1.296-3.89 4.753-6.1 6.178-6.87a1.85 1.85 0 0 1 .976-.234c6.71.42 9.14 6.995 9.86 9.667a4.77 4.77 0 0 0-1.227.227c-.864-2.32-2.991-6.598-7.195-7.782a1.463 1.463 0 0 0-1.397.336c-.37.34-.534.85-.432 1.341.409 2.049 1.784 6.931 5.747 9.732a4.809 4.809 0 0 0-.097.958v.966h-5.732c-3.037-1.263-5.29-4.184-6.369-5.835a2.883 2.883 0 0 1-.312-2.506ZM6.8 11.632a.967.967 0 0 0 .967-.967v-2.77l2.126 1.77a4.8 4.8 0 0 0 .59 3.955 20.669 20.669 0 0 0 4.28 4.778H12.6c-4.502 0-7.681-4.452-9.03-6.766H6.8Z"/></mask><path fill="#7AC751" d="M7.425 18.725a2.892 2.892 0 0 0-1.592 2.573v6.767c0 1.068.866 1.933 1.934 1.933v26.1a2.9 2.9 0 0 0 2.9 2.9h38.666a2.9 2.9 0 0 0 2.9-2.9v-26.1a1.933 1.933 0 0 0 1.934-1.933v-6.767a2.892 2.892 0 0 0-1.591-2.573c4.021-2.578 6.218-7.391 6.341-7.667a.967.967 0 0 0-.884-1.36h-3.866V5.832a.967.967 0 0 0-1.587-.743l-3.227 2.695a15.703 15.703 0 0 0-6.4-6.316 3.76 3.76 0 0 0-2.014-.463C34.464 1.41 31.363 6.643 30 10.182c-1.369-3.535-4.47-8.754-10.939-9.158-.7-.04-1.4.119-2.014.458a15.71 15.71 0 0 0-6.393 6.301L7.42 5.088a.967.967 0 0 0-1.586.744v3.866H1.967a.967.967 0 0 0-.884 1.36c.123.276 2.32 5.089 6.342 7.667Zm15.808 1.607v7.733H7.768v-6.767c0-.533.433-.966.966-.966h14.5Zm1.866-5.688a13.831 13.831 0 0 1-4.465-7.434c3.054 1.338 4.65 4.981 5.228 6.603a4.853 4.853 0 0 0-.763.83Zm1.035 2.788a2.9 2.9 0 0 1 2.9-2.9h1.933a2.9 2.9 0 0 1 2.9 2.9v.966h-7.733v-.966Zm8.7 10.633h-9.667v-7.733h9.666v7.733Zm-.696-14.252c.58-1.622 2.175-5.265 5.228-6.603a13.823 13.823 0 0 1-4.465 7.434 4.853 4.853 0 0 0-.763-.83ZM9.7 56.098v-26.1h15.467v27.067h-14.5a.967.967 0 0 1-.967-.967Zm17.4.967V29.998h5.8v27.067h-5.8Zm23.2-.967a.967.967 0 0 1-.966.967h-14.5V29.998H50.3v26.1Zm.967-35.766c.534 0 .966.433.966.966v6.767H36.767v-7.733h14.5Zm1.933-8.7h3.233c-1.344 2.313-4.519 6.766-9.033 6.766h-2.165a20.703 20.703 0 0 0 4.284-4.785 4.801 4.801 0 0 0 .593-3.944l2.121-1.77v2.766c0 .534.433.967.967.967Zm-12.14-8.7c.34-.015.678.066.974.234 1.425.773 4.88 2.982 6.18 6.877a2.893 2.893 0 0 1-.313 2.514c-1.08 1.652-3.331 4.576-6.369 5.841H35.8v-.966c0-.322-.032-.643-.096-.958 3.963-2.803 5.337-7.683 5.751-9.729a1.43 1.43 0 0 0-.435-1.341 1.455 1.455 0 0 0-1.397-.336c-4.204 1.184-6.33 5.466-7.195 7.782a4.776 4.776 0 0 0-1.228-.227c.714-2.673 3.144-9.268 9.86-9.691Zm-29.273 7.125c1.296-3.89 4.753-6.1 6.178-6.87a1.85 1.85 0 0 1 .976-.234c6.71.42 9.14 6.995 9.86 9.667a4.77 4.77 0 0 0-1.227.227c-.864-2.32-2.991-6.598-7.195-7.782a1.463 1.463 0 0 0-1.397.336c-.37.34-.534.85-.432 1.341.409 2.049 1.784 6.931 5.747 9.732a4.809 4.809 0 0 0-.097.958v.966h-5.732c-3.037-1.263-5.29-4.184-6.369-5.835a2.883 2.883 0 0 1-.312-2.506ZM6.8 11.632a.967.967 0 0 0 .967-.967v-2.77l2.126 1.77a4.8 4.8 0 0 0 .59 3.955 20.669 20.669 0 0 0 4.28 4.778H12.6c-4.502 0-7.681-4.452-9.03-6.766H6.8Z"/><path stroke="#7AC751" stroke-width=".5" d="M7.425 18.725a2.892 2.892 0 0 0-1.592 2.573v6.767c0 1.068.866 1.933 1.934 1.933v26.1a2.9 2.9 0 0 0 2.9 2.9h38.666a2.9 2.9 0 0 0 2.9-2.9v-26.1a1.933 1.933 0 0 0 1.934-1.933v-6.767a2.892 2.892 0 0 0-1.591-2.573c4.021-2.578 6.218-7.391 6.341-7.667a.967.967 0 0 0-.884-1.36h-3.866V5.832a.967.967 0 0 0-1.587-.743l-3.227 2.695a15.703 15.703 0 0 0-6.4-6.316 3.76 3.76 0 0 0-2.014-.463C34.464 1.41 31.363 6.643 30 10.182c-1.369-3.535-4.47-8.754-10.939-9.158-.7-.04-1.4.119-2.014.458a15.71 15.71 0 0 0-6.393 6.301L7.42 5.088a.967.967 0 0 0-1.586.744v3.866H1.967a.967.967 0 0 0-.884 1.36c.123.276 2.32 5.089 6.342 7.667Zm15.808 1.607v7.733H7.768v-6.767c0-.533.433-.966.966-.966h14.5Zm1.866-5.688a13.831 13.831 0 0 1-4.465-7.434c3.054 1.338 4.65 4.981 5.228 6.603a4.853 4.853 0 0 0-.763.83Zm1.035 2.788a2.9 2.9 0 0 1 2.9-2.9h1.933a2.9 2.9 0 0 1 2.9 2.9v.966h-7.733v-.966Zm8.7 10.633h-9.667v-7.733h9.666v7.733Zm-.696-14.252c.58-1.622 2.175-5.265 5.228-6.603a13.823 13.823 0 0 1-4.465 7.434 4.853 4.853 0 0 0-.763-.83ZM9.7 56.098v-26.1h15.467v27.067h-14.5a.967.967 0 0 1-.967-.967Zm17.4.967V29.998h5.8v27.067h-5.8Zm23.2-.967a.967.967 0 0 1-.966.967h-14.5V29.998H50.3v26.1Zm.967-35.766c.534 0 .966.433.966.966v6.767H36.767v-7.733h14.5Zm1.933-8.7h3.233c-1.344 2.313-4.519 6.766-9.033 6.766h-2.165a20.703 20.703 0 0 0 4.284-4.785 4.801 4.801 0 0 0 .593-3.944l2.121-1.77v2.766c0 .534.433.967.967.967Zm-12.14-8.7c.34-.015.678.066.974.234 1.425.773 4.88 2.982 6.18 6.877a2.893 2.893 0 0 1-.313 2.514c-1.08 1.652-3.331 4.576-6.369 5.841H35.8v-.966c0-.322-.032-.643-.096-.958 3.963-2.803 5.337-7.683 5.751-9.729a1.43 1.43 0 0 0-.435-1.341 1.455 1.455 0 0 0-1.397-.336c-4.204 1.184-6.33 5.466-7.195 7.782a4.776 4.776 0 0 0-1.228-.227c.714-2.673 3.144-9.268 9.86-9.691Zm-29.273 7.125c1.296-3.89 4.753-6.1 6.178-6.87a1.85 1.85 0 0 1 .976-.234c6.71.42 9.14 6.995 9.86 9.667a4.77 4.77 0 0 0-1.227.227c-.864-2.32-2.991-6.598-7.195-7.782a1.463 1.463 0 0 0-1.397.336c-.37.34-.534.85-.432 1.341.409 2.049 1.784 6.931 5.747 9.732a4.809 4.809 0 0 0-.097.958v.966h-5.732c-3.037-1.263-5.29-4.184-6.369-5.835a2.883 2.883 0 0 1-.312-2.506ZM6.8 11.632a.967.967 0 0 0 .967-.967v-2.77l2.126 1.77a4.8 4.8 0 0 0 .59 3.955 20.669 20.669 0 0 0 4.28 4.778H12.6c-4.502 0-7.681-4.452-9.03-6.766H6.8Z" mask="url(#a)"/><path fill="#7AC751" stroke="#7AC751" stroke-width=".25" d="M12.6 31.806c-.603 0-1.092.489-1.092 1.092v1.933a1.092 1.092 0 1 0 2.184 0v-1.933c0-.603-.489-1.092-1.092-1.092ZM12.6 37.606c-.603 0-1.092.489-1.092 1.092v15.466a1.092 1.092 0 1 0 2.184 0V38.698c0-.603-.489-1.092-1.092-1.092ZM47.4 35.923c.603 0 1.092-.49 1.092-1.092v-1.933a1.092 1.092 0 0 0-2.183 0v1.933c0 .603.488 1.092 1.091 1.092ZM47.4 55.256c.603 0 1.092-.489 1.092-1.092V38.698a1.092 1.092 0 0 0-2.183 0v15.466c0 .603.488 1.092 1.091 1.092Z"/></svg>
