<svg xmlns="http://www.w3.org/2000/svg" width="32.2" height="32.2" fill="none"><defs><linearGradient id="a" x1="16.1" x2="16.1" y1="0" y2="32.2" gradientUnits="userSpaceOnUse"><stop stop-color="#FEFEFF" stop-opacity=".29"/><stop offset="1" stop-color="#FFF" stop-opacity=".4"/></linearGradient><linearGradient id="b" x1="-1.544" x2="32.2" y1="2.159" y2="33.216" gradientUnits="userSpaceOnUse"><stop stop-color="#FFF" stop-opacity=".078"/><stop offset="1" stop-color="#FFF" stop-opacity=".071"/></linearGradient></defs><circle cx="16.1" cy="16.1" r="16.1" fill="url(#a)" fill-opacity=".05"/><circle cx="16.1" cy="16.1" r="15.6" stroke="url(#b)"/><path fill="#555" d="M15.674 13.84a2.69 2.69 0 0 0-2.684 2.684 2.69 2.69 0 0 0 2.684 2.684 2.69 2.69 0 0 0 2.685-2.684 2.69 2.69 0 0 0-2.685-2.685Zm8.052 2.684c0-1.112.01-2.214-.053-3.323-.062-1.29-.356-2.433-1.298-3.376-.945-.944-2.087-1.236-3.376-1.298-1.111-.063-2.213-.053-3.323-.053-1.111 0-2.213-.01-3.322.053-1.29.062-2.433.356-3.376 1.298-.944.945-1.236 2.087-1.299 3.376-.062 1.111-.052 2.213-.052 3.323 0 1.11-.01 2.213.052 3.322.063 1.29.357 2.433 1.3 3.376.944.944 2.086 1.236 3.375 1.299 1.111.062 2.213.052 3.322.052 1.112 0 2.214.01 3.323-.052 1.29-.063 2.433-.357 3.376-1.3.944-.944 1.236-2.086 1.298-3.375.065-1.11.053-2.21.053-3.322Zm-8.052 4.13a4.125 4.125 0 0 1-4.13-4.13 4.124 4.124 0 0 1 4.13-4.13 4.124 4.124 0 0 1 4.13 4.13 4.125 4.125 0 0 1-4.13 4.13Zm4.3-7.465a.963.963 0 1 1 0-1.93.963.963 0 1 1 0 1.93Z"/></svg>