<svg width="16.100281" height="16.099854" viewBox="0 0 16.1003 16.0999" fill="none" xmlns="http://www.w3.org/2000/svg" xmlns:xlink="http://www.w3.org/1999/xlink">
	<desc>
			Created with Pixso.
	</desc>
	<defs/>
	<path id="ic-instagram" d="M8.04797 5.36548C6.56982 5.36548 5.36353 6.57178 5.36353 8.05005C5.36353 9.52808 6.56982 10.7344 8.04797 10.7344C9.52615 10.7344 10.7325 9.52808 10.7325 8.05005C10.7325 6.57178 9.52615 5.36548 8.04797 5.36548ZM16.0994 8.05005C16.0994 6.93823 16.1095 5.83667 16.0471 4.72705C15.9846 3.43823 15.6906 2.29443 14.7481 1.35181C13.8036 0.407471 12.6617 0.115479 11.3729 0.0529785C10.2612 -0.00952148 9.15964 0.000488281 8.04999 0.000488281C6.93835 0.000488281 5.83676 -0.00952148 4.72714 0.0529785C3.43826 0.115479 2.29437 0.409424 1.3519 1.35181C0.40741 2.29639 0.115387 3.43823 0.052948 4.72705C-0.00946045 5.83887 0.000610352 6.94043 0.000610352 8.05005C0.000610352 9.15967 -0.00946045 10.2632 0.052948 11.3728C0.115387 12.6616 0.409424 13.8057 1.3519 14.748C2.29639 15.6926 3.43826 15.9846 4.72714 16.0471C5.83878 16.1094 6.94037 16.0994 8.04999 16.0994C9.16165 16.0994 10.2632 16.1094 11.3729 16.0471C12.6617 15.9846 13.8056 15.6907 14.7481 14.748C15.6926 13.8037 15.9846 12.6616 16.0471 11.3728C16.1115 10.2632 16.0994 9.16162 16.0994 8.05005ZM8.04797 12.1804C5.76227 12.1804 3.91757 10.3357 3.91757 8.05005C3.91757 5.76416 5.76227 3.91968 8.04797 3.91968C10.3337 3.91968 12.1784 5.76416 12.1784 8.05005C12.1784 10.3357 10.3337 12.1804 8.04797 12.1804ZM12.3476 4.71509C11.8139 4.71509 11.3829 4.28418 11.3829 3.75049C11.3829 3.2168 11.8139 2.78589 12.3476 2.78589C12.8813 2.78589 13.3122 3.2168 13.3122 3.75049C13.3124 3.8772 13.2875 4.00269 13.2391 4.11963C13.1907 4.23682 13.1196 4.34326 13.03 4.43286C12.9404 4.52246 12.834 4.59351 12.7169 4.64185C12.5998 4.69043 12.4743 4.71509 12.3476 4.71509Z" fill="#555555" fill-opacity="1.000000" fill-rule="nonzero"/>
</svg>
