<svg xmlns="http://www.w3.org/2000/svg" width="32.2" height="32.2" fill="none"><defs><linearGradient id="a" x1="16.1" x2="16.1" y1="0" y2="32.2" gradientUnits="userSpaceOnUse"><stop stop-color="#FEFEFF" stop-opacity=".29"/><stop offset="1" stop-color="#FFF" stop-opacity=".4"/></linearGradient><linearGradient id="b" x1="-1.544" x2="32.2" y1="2.159" y2="33.216" gradientUnits="userSpaceOnUse"><stop stop-color="#FFF" stop-opacity=".078"/><stop offset="1" stop-color="#FFF" stop-opacity=".071"/></linearGradient></defs><circle cx="16.1" cy="16.1" r="16.1" fill="url(#a)" fill-opacity=".05"/><circle cx="16.1" cy="16.1" r="15.6" stroke="url(#b)"/><path fill="#555" d="M9.321 13.705c0-.733.128-1.425.38-2.07.242-.628.6-1.204 1.056-1.698a7.168 7.168 0 0 1 1.549-1.251 7.07 7.07 0 0 1 1.885-.795 8.074 8.074 0 0 1 2.058-.265 6.74 6.74 0 0 1 2.997.679 5.672 5.672 0 0 1 2.252 1.972c.578.862.865 1.837.865 2.923a9.28 9.28 0 0 1-.195 1.913 7.796 7.796 0 0 1-.608 1.802 6.217 6.217 0 0 1-1.02 1.523 4.45 4.45 0 0 1-1.476 1.049c-.607.266-1.264.4-1.926.392-.46 0-.92-.108-1.374-.325-.454-.217-.78-.514-.976-.896-.069.265-.163.647-.288 1.147-.12.5-.201.821-.237.967-.038.145-.108.387-.21.723-.068.248-.157.49-.264.724l-.324.635c-.14.272-.297.536-.469.789-.17.247-.381.541-.633.88l-.14.05-.094-.101c-.1-1.068-.152-1.706-.152-1.917 0-.624.074-1.325.221-2.103.144-.777.372-1.754.678-2.928.306-1.173.482-1.864.529-2.068-.216-.44-.325-1.014-.325-1.72 0-.565.176-1.093.53-1.59.353-.496.8-.743 1.343-.743.415 0 .737.137.968.413.232.275.345.621.345 1.044 0 .449-.149 1.098-.448 1.946-.3.85-.449 1.484-.449 1.904 0 .427.153.784.458 1.064.301.28.7.431 1.11.422.373 0 .719-.084 1.04-.255.316-.165.59-.401.8-.69.457-.627.782-1.34.957-2.096.09-.397.16-.775.204-1.13.046-.357.066-.694.066-1.014 0-1.174-.373-2.09-1.114-2.745-.745-.656-1.715-.982-2.909-.982-1.357 0-2.492.44-3.4 1.32-.91.878-1.368 1.994-1.368 3.347 0 .298.045.587.131.865.084.278.175.5.274.663.098.162.19.319.274.464.085.145.13.248.13.31 0 .19-.05.439-.151.745-.105.306-.228.458-.377.458-.014 0-.073-.01-.174-.032a2.081 2.081 0 0 1-.922-.57 2.986 2.986 0 0 1-.621-.962 6.583 6.583 0 0 1-.332-1.101 4.598 4.598 0 0 1-.124-1.086Z"/></svg>