<svg width="13.041840" height="16.947266" viewBox="0 0 13.0418 16.9473" fill="none" xmlns="http://www.w3.org/2000/svg" xmlns:xlink="http://www.w3.org/1999/xlink">
	<desc>
			Created with Pixso.
	</desc>
	<defs/>
	<path id="ic-pinterset" d="M6.10352e-05 6.0791C6.10352e-05 5.34644 0.128143 4.6543 0.380554 4.0083C0.621674 3.38062 0.97995 2.80469 1.43628 2.31104C1.89166 1.82397 2.41278 1.40259 2.98456 1.05957C3.57123 0.70459 4.20633 0.436768 4.87003 0.264648C5.54172 0.0883789 6.23334 -0.000732422 6.9278 0C8.00049 0 8.99878 0.227051 9.92456 0.678955C10.8383 1.1228 11.6159 1.80396 12.1764 2.65112C12.7546 3.51294 13.0418 4.48755 13.0418 5.57446C13.0418 6.22607 12.9778 6.86377 12.8469 7.48706C12.7184 8.11035 12.514 8.71533 12.2385 9.28882C11.9759 9.84399 11.6325 10.3572 11.2195 10.8118C10.8044 11.259 10.3018 11.616 9.7428 11.8608C9.13593 12.1267 8.4794 12.2607 7.81686 12.2534C7.35632 12.2534 6.89673 12.1453 6.44278 11.9277C5.98886 11.7112 5.66299 11.4136 5.4671 11.032C5.39835 11.2966 5.30417 11.679 5.17892 12.1792C5.05838 12.6782 4.97739 13.0002 4.94159 13.1462C4.90393 13.2913 4.83423 13.5334 4.73251 13.8687C4.66354 14.1167 4.57504 14.3589 4.46786 14.593L4.14389 15.2278C4.00378 15.5 3.84717 15.7637 3.6749 16.0168C3.50443 16.2637 3.29346 16.5583 3.04202 16.8975L2.9017 16.9473L2.80844 16.8457C2.70767 15.7786 2.65588 15.1401 2.65588 14.9292C2.65588 14.3047 2.73029 13.604 2.8772 12.8262C3.0213 12.0491 3.24921 11.0725 3.5553 9.89819C3.86136 8.72461 4.03653 8.03442 4.08362 7.83008C3.86795 7.39014 3.7587 6.81567 3.7587 6.10938C3.7587 5.54517 3.93481 5.01685 4.28799 4.51953C4.64209 4.02417 5.08945 3.77661 5.63193 3.77661C6.04724 3.77661 6.36932 3.91406 6.60007 4.18994C6.83176 4.46509 6.94476 4.81152 6.94476 5.23438C6.94476 5.68262 6.79596 6.33154 6.49646 7.18018C6.19699 8.02954 6.04819 8.66357 6.04819 9.08447C6.04819 9.51099 6.20074 9.86792 6.50589 10.1477C6.80701 10.4275 7.20526 10.5791 7.61624 10.5706C7.9892 10.5706 8.33484 10.4858 8.65598 10.3154C8.97211 10.1499 9.24573 9.91357 9.45554 9.625C9.91251 8.99805 10.2383 8.2854 10.4133 7.52954C10.5038 7.13208 10.5735 6.75439 10.6168 6.39941C10.6629 6.04248 10.6827 5.70532 10.6827 5.38501C10.6827 4.21069 10.3098 3.29541 9.56857 2.63989C8.82361 1.98438 7.85358 1.65845 6.66034 1.65845C5.30322 1.65845 4.1684 2.09741 3.25955 2.97803C2.34979 3.85571 1.89209 4.97168 1.89209 6.32495C1.89209 6.62354 1.93732 6.91162 2.02301 7.19043C2.10681 7.46826 2.19818 7.6897 2.29706 7.85352C2.39502 8.01465 2.4873 8.17188 2.57114 8.31689C2.65588 8.46191 2.70013 8.56543 2.70013 8.62769C2.70013 8.81787 2.65024 9.06567 2.54947 9.37158C2.44492 9.67773 2.32156 9.83032 2.17276 9.83032C2.15863 9.83032 2.10022 9.82007 1.99854 9.79834C1.64627 9.69312 1.32812 9.49658 1.07651 9.22852C0.809448 8.95068 0.598694 8.62402 0.455872 8.26611C0.313477 7.90942 0.202545 7.54102 0.12439 7.16504C0.039917 6.80933 -0.00180054 6.44482 6.10352e-05 6.0791Z" fill="#555555" fill-opacity="1.000000" fill-rule="nonzero"/>
</svg>
