<svg xmlns="http://www.w3.org/2000/svg" width="12" height="9" fill="none"><path fill="#757575" d="M11.388 2.982 8.878.21A.617.617 0 0 0 8.421 0a.617.617 0 0 0-.458.21.755.755 0 0 0-.19.505c0 .19.069.371.19.505l2.3 2.544h-8.66a.617.617 0 0 0-.458.21.755.755 0 0 0-.19.505c0 .19.068.371.19.506.12.134.286.209.457.209h8.7L7.964 7.779a.724.724 0 0 0-.14.232.78.78 0 0 0 .14.78c.121.134.286.209.458.209a.617.617 0 0 0 .457-.21l2.51-2.773c.364-.403.567-.949.567-1.518 0-.568-.204-1.114-.567-1.517Z"/></svg>