<svg xmlns="http://www.w3.org/2000/svg" width="13" height="13" fill="none"><path fill="#7AC751" fill-rule="evenodd" d="M5.18-.54c.52 0 1.01.21 1.38.58l5.58 5.64c.18.19.32.41.42.65a1.98 1.98 0 0 1 0 1.51c-.1.24-.24.46-.42.64l-3.66 3.71c-.19.18-.4.33-.64.43-.24.1-.49.15-.75.15-.25 0-.51-.05-.75-.15-.23-.1-.45-.25-.63-.43L.13 6.54c-.18-.18-.32-.4-.42-.64-.1-.24-.15-.5-.15-.76v-3.7c0-.53.21-1.03.57-1.4C.5-.33 1-.54 1.52-.54h3.66Zm0 1.33H1.52a.66.66 0 0 0-.46.19.65.65 0 0 0-.18.46v3.7c0 .18.06.34.18.46l5.58 5.65c.25.25.66.25.91 0l3.66-3.71c.06-.06.1-.13.14-.21a.69.69 0 0 0 .04-.25c0-.08-.01-.17-.04-.24a.77.77 0 0 0-.14-.21L5.63.98a.596.596 0 0 0-.21-.14.687.687 0 0 0-.24-.05ZM3.51 2.12c.34 0 .68.14.93.39a1.349 1.349 0 0 1 0 1.88c-.25.25-.59.39-.93.39-.35 0-.69-.14-.93-.39-.25-.25-.39-.58-.39-.94 0-.35.14-.69.39-.94.24-.25.58-.39.93-.39Z"/></svg>