<svg xmlns="http://www.w3.org/2000/svg" width="147" height="39" fill="none"><path fill="none" d="M15 0h116v39H15z"/><path fill="#555" fill-rule="evenodd" d="M92.96 15.415q.103.042.223.042h2.185q.179 0 .311-.078.064-.037.117-.092.092-.092.134-.203.036-.094.036-.201v-1.729q0-.12-.043-.222-.042-.103-.127-.188-.053-.055-.117-.092-.132-.078-.311-.078h-2.185q-.12 0-.223.043-.103.042-.188.127-.077.08-.118.175-.046.108-.046.235v1.729q0 .114.04.213.04.104.124.191.085.085.188.128Zm19.536 0q.103.042.222.042h2.186q.179 0 .311-.078.064-.037.117-.092.092-.092.134-.203.036-.094.036-.201v-1.729q0-.12-.043-.222-.042-.103-.127-.188-.053-.055-.117-.092-.132-.078-.311-.078h-2.186q-.119 0-.222.043-.103.042-.188.127-.077.08-.118.175-.046.108-.046.235v1.729q0 .114.039.213.041.104.125.191.085.085.188.128Zm-13.09 14.539q.108.046.235.046h1.946q.197 0 .332-.091.045-.031.084-.073.069-.074.108-.162.05-.113.05-.248v-4.658l4.582 4.822q.217.193.369.305.158.105.522.105h2.279q.127 0 .231-.048.075-.034.138-.093.053-.049.088-.108.07-.118.07-.278 0-.17-.24-.41l-5.543-5.954 4.945-4.629q.141-.093.188-.21.053-.123.053-.223 0-.183-.085-.309-.027-.039-.062-.072-.037-.037-.081-.065-.127-.081-.305-.081h-2.233q-.334 0-.492.11-.152.106-.393.3l-4.031 3.814v-8.209q0-.142-.056-.258-.038-.08-.102-.146-.044-.05-.097-.084-.132-.086-.319-.086h-1.946q-.12 0-.222.042-.103.043-.188.128-.08.077-.122.172-.047.105-.047.232v15.89q0 .12.042.223.042.103.127.188.08.077.176.118Zm-60.192 0q.108.046.235.046h2.11q.182 0 .32-.079.06-.035.113-.085.085-.085.128-.188.042-.102.042-.222v-5.953h7.225q.188 0 .325-.084.055-.033.102-.08.086-.085.128-.188.042-.103.042-.223v-1.681q0-.173-.073-.306-.038-.07-.096-.128-.053-.055-.117-.092-.133-.078-.311-.078h-7.225v-4.558h7.7q.222 0 .373-.105.032-.021.06-.048.052-.048.088-.106.082-.132.082-.316V13.8q0-.179-.078-.311-.037-.064-.092-.117-.047-.05-.104-.084-.138-.086-.33-.086H39.45q-.12 0-.222.043-.103.042-.188.127-.055.053-.092.117-.078.132-.078.31v15.628q0 .12.042.222.043.103.128.188.08.077.175.118Zm38.857 0q.108.046.235.046h2.11q.134 0 .244-.051.088-.04.16-.113.085-.085.127-.188.043-.102.043-.222v-6.604q0-1.265.617-2.034.06-.075.127-.145.218-.233.478-.398.631-.4 1.514-.4 1.03 0 1.67.5.169.131.31.298.686.79.686 2.18v6.603q0 .127.046.235.041.095.118.175.08.077.175.118.108.046.235.046h2.116q.134 0 .244-.051.088-.04.16-.113.085-.085.127-.188.043-.102.043-.222v-6.744q0-1.682-.592-2.883-.398-.816-1.023-1.38-.295-.267-.641-.478l-.08-.047q-1.052-.615-2.463-.615-1.442 0-2.414.516-.973.515-1.594 1.283v-.984q0-.127-.047-.233-.043-.094-.123-.172-.092-.092-.203-.134-.094-.035-.201-.035h-1.969q-.12 0-.222.042-.103.042-.188.127-.08.078-.123.172-.047.106-.047.233v11.332q0 .12.042.222.043.103.128.188.08.077.175.118Zm40.848 0q.108.046.235.046h2.109q.135 0 .245-.051.087-.04.16-.113.085-.085.127-.188.043-.102.043-.222v-6.604q0-1.265.617-2.034.061-.075.127-.145.218-.233.478-.398.631-.4 1.514-.4 1.03 0 1.67.5.169.131.31.298.686.79.686 2.18v6.603q0 .127.046.235.041.095.118.175.08.077.175.118.108.046.235.046h2.116q.134 0 .244-.051.087-.04.16-.113.085-.085.127-.188.043-.102.043-.222v-6.744q0-1.682-.592-2.883-.398-.816-1.023-1.38-.295-.267-.641-.478l-.079-.047q-1.053-.615-2.464-.615-1.442 0-2.414.516-.973.515-1.594 1.283v-.984q0-.127-.047-.233-.043-.094-.123-.172-.092-.092-.203-.134-.094-.035-.201-.035h-1.969q-.12 0-.222.042-.103.042-.188.127-.08.078-.123.172-.047.106-.047.233v11.332q0 .12.042.222.043.103.128.188.08.077.175.118Zm17.391 4.868q1.131.457 2.883.457 2.039 0 3.345-.685.837-.434 1.402-1.098.322-.378.555-.83.651-1.248.651-2.976l-.024-11.573q0-.178-.078-.311-.037-.064-.092-.117-.085-.085-.187-.127-.103-.043-.223-.043h-1.939q-.12 0-.223.043-.102.042-.187.127-.055.053-.092.117-.078.133-.078.311v.961q-.598-.767-1.535-1.283-.938-.516-2.303-.516-1.272 0-2.221.434-.663.303-1.169.774-.218.204-.407.439-.621.78-.943 1.81-.323 1.032-.375 2.233-.024.644 0 1.295.052 1.248.375 2.279.322 1.031.943 1.787.147.177.311.336.538.519 1.265.842.949.422 2.221.422 1.318 0 2.215-.434.902-.433 1.482-1.13V30q0 1.102-.328 1.723-.186.361-.473.602-.211.177-.476.288-.621.27-1.535.27-.862 0-1.354-.252-.492-.252-.732-.615-.241-.358-.381-.674-.1-.287-.246-.399-.141-.105-.381-.105h-2.086q-.093 0-.177.027-.134.043-.245.155-.106.106-.142.232-.026.09-.016.19.023.357.299.99.281.638.925 1.283.651.65 1.776 1.107Zm-81.363-5.216q1.061.634 2.502.634 1.441 0 2.396-.48.543-.272.987-.657.342-.297.625-.662v.985q0 .144.054.263.037.079.098.147.042.044.093.076.136.088.329.088h1.945q.135 0 .245-.051.087-.04.16-.113.085-.085.127-.188.042-.102.042-.222V18.094q0-.127-.047-.233-.042-.094-.123-.172-.077-.08-.171-.122-.106-.047-.233-.047h-2.11q-.12 0-.222.042-.102.042-.187.127-.08.078-.123.172-.047.106-.047.233v6.603q0 1.287-.63 2.066-.05.061-.103.12-.204.22-.447.379-.632.412-1.533.412-1.138 0-1.78-.564-.833-.732-.833-2.413v-6.603q0-.143-.056-.259-.038-.079-.103-.146-.044-.049-.097-.084-.131-.085-.319-.085h-2.115q-.12 0-.222.042-.103.042-.188.127-.072.073-.113.16-.051.11-.051.245v6.744q0 1.658.574 2.871.406.857 1.057 1.439.27.242.584.436l.035.022Zm13.116.348q.108.046.235.046h2.086q.188 0 .325-.083.056-.034.103-.081.085-.085.127-.188.043-.102.043-.222v-6.604q0-1.02.5-1.634.062-.077.133-.147.074-.075.156-.14.617-.499 1.636-.499h1.876q.187 0 .318-.086.053-.034.097-.084.07-.074.109-.161.05-.113.05-.249v-1.728q0-.143-.056-.259-.038-.079-.103-.146-.043-.049-.097-.084-.131-.085-.319-.085h-.984q-1.154 0-2.033.41-.498.23-.891.579-.296.263-.533.593v-.985q0-.161-.068-.285-.043-.079-.114-.143-.102-.095-.223-.137-.094-.032-.198-.032h-1.94q-.12 0-.222.042-.103.042-.188.127-.055.053-.092.117-.078.133-.078.311v11.309q0 .12.042.222.043.103.128.188.08.077.175.118Zm24.984 0q.108.046.235.046h1.992q.197 0 .332-.091.046-.031.084-.073.07-.074.108-.162.05-.113.05-.248V18.094q0-.143-.055-.259-.038-.079-.103-.146-.044-.049-.097-.084-.131-.085-.319-.085h-1.992q-.12 0-.222.042-.103.042-.188.127-.08.078-.123.172-.047.106-.047.233v11.332q0 .12.042.222.043.103.128.188.08.077.175.118Zm19.536 0q.108.046.235.046h1.992q.197 0 .332-.091.046-.031.084-.073.069-.074.108-.162.051-.113.051-.248V18.094q0-.143-.056-.259-.038-.079-.103-.146-.044-.049-.097-.084-.131-.085-.319-.085h-1.992q-.12 0-.222.042-.103.042-.188.127-.08.078-.123.172-.047.106-.047.233v11.332q0 .12.042.222.043.103.128.188.08.077.175.118Zm28.069-3q-.598.433-1.582.433-.985 0-1.582-.434-.221-.16-.394-.36-.297-.344-.456-.806-.252-.732-.305-1.57-.047-.604 0-1.178.053-.861.305-1.582.144-.41.4-.732.193-.243.45-.434.597-.445 1.582-.445.984 0 1.582.445.321.237.552.542.204.268.338.589.114.27.191.55.117.425.149.874.023.293.023.773 0 .475-.023.791l-.01.118q-.066.66-.33 1.3-.15.363-.388.655-.216.264-.502.47Z"/><path fill="#85B839" d="M5.97 6.947c.645 0 1.171-.527 1.171-1.172 0-.645-.526-1.171-1.171-1.171a1.172 1.172 0 1 0 0 2.343ZM9.596 24.783v2.25a10.673 10.673 0 0 1 6.298-2.048c2.292 0 4.473.725 6.297 2.048v-2.25c0-1.889.948-3.558 2.387-4.564a4.498 4.498 0 0 0-4.485-4.264h-8.399A4.498 4.498 0 0 0 7.21 20.22a5.565 5.565 0 0 1 2.386 4.564Z"/><path fill="#85B839" fill-rule="evenodd" d="M8.915 12.53h13.907v1.897H8.915V12.53Z"/><path fill="#85B839" d="M22.191 29.026a9.157 9.157 0 0 0-6.297-2.498c-2.361 0-4.582.89-6.298 2.498v2.055h12.595v-2.055ZM25.551 6.947c.645 0 1.172-.527 1.172-1.172 0-.645-.527-1.171-1.172-1.171a1.172 1.172 0 0 0 0 2.343ZM15.912 3.778a1.89 1.89 0 0 0 1.889-1.89A1.89 1.89 0 0 0 15.91 0a1.89 1.89 0 0 0-1.888 1.889 1.89 1.89 0 0 0 1.889 1.889Z"/><path fill="#85B839" d="M27.76 20.757a4.03 4.03 0 0 0-4.026 4.026v7.837H8.054v-7.837a4.03 4.03 0 0 0-4.027-4.026A4.03 4.03 0 0 0 0 24.783a4.03 4.03 0 0 0 4.027 4.027h.771v7.07h22.191v-7.07h.772a4.03 4.03 0 0 0 4.026-4.027 4.03 4.03 0 0 0-4.026-4.026ZM4.028 26.034a1.252 1.252 0 1 1 .001-2.5 1.252 1.252 0 0 1-.001 2.5Zm23.734 0a1.25 1.25 0 0 1-1.251-1.25 1.25 1.25 0 1 1 2.502 0 1.25 1.25 0 0 1-1.251 1.25ZM8.698 10.988h14.337a7.292 7.292 0 0 0 1.662-2.927 6.523 6.523 0 0 1-3.032.757 6.523 6.523 0 0 1-5.8-3.547c-1.085 2.101-3.277 3.547-5.8 3.547-1.071 0-2.106-.26-3.028-.743a7.392 7.392 0 0 0 1.661 2.913Z"/><path fill="#85B839" fill-rule="evenodd" d="M8.053 37.422h1.543v1.543H8.053v-1.543ZM22.191 37.422h1.543v1.543h-1.543v-1.543Z"/></svg>