<svg xmlns="http://www.w3.org/2000/svg" width="10" height="10" fill="none"><path fill="#FFF" d="M3.82-.22 2.54 2.26l-2.88.4c-.51.07-.72.67-.34 1.02L1.4 5.61.9 8.33c-.09.49.46.86.92.63l2.57-1.29 2.57 1.29c.46.23 1-.14.91-.63l-.49-2.72 2.08-1.93c.38-.35.17-.95-.35-1.02l-2.87-.4L4.95-.22c-.23-.44-.89-.45-1.13 0Z"/><path fill="#7AC751" fill-rule="evenodd" d="m2.54 2.26-2.88.4c-.51.07-.72.67-.34 1.02L1.4 5.61.9 8.33c-.09.49.46.86.92.63l2.57-1.29 2.57 1.29c.46.23 1-.14.91-.63l-.49-2.72 2.08-1.93c.38-.35.17-.95-.35-1.02l-2.87-.4L4.95-.22c-.23-.44-.89-.45-1.13 0L2.54 2.26ZM1.07 3.67l1.63-.22.62-.09L4.39 1.3l1.07 2.06 2.24.31-1.62 1.5.4 2.21-2.09-1.05-2.1 1.05.4-2.21-1.62-1.5Z"/></svg>