<svg width="11" height="11" viewBox="0 0 11 11" fill="none" xmlns="http://www.w3.org/2000/svg">
<path d="M3.93841 3.85733L4.24577 3.81471L4.38864 3.53926L5.6735 1.06195C5.67352 1.0619 5.67355 1.06186 5.67357 1.06182C5.67512 1.05886 5.67588 1.0583 5.67547 1.05872C5.6752 1.05899 5.67541 1.05866 5.67681 1.05787C5.68032 1.0559 5.68994 1.0521 5.70463 1.05215C5.71936 1.05219 5.72989 1.0561 5.73456 1.05874L5.73654 1.06001L5.73697 1.06037L5.73701 1.06042L5.73718 1.06064L5.73848 1.06283L5.73849 1.06284L7.02289 3.53926L7.16576 3.81471L7.47312 3.85733L10.3481 4.2559L10.3485 4.25596C10.3513 4.25634 10.3537 4.25678 10.3558 4.25724L8.29101 6.17058L8.04994 6.39396L8.10838 6.71737L8.59763 9.42507C8.59028 9.42955 8.58143 9.43251 8.57311 9.43324C8.56597 9.43387 8.55773 9.43316 8.54606 9.42733L8.54597 9.42728L5.97402 8.14173L5.70576 8.00764L5.43751 8.14173L2.86556 9.42728L2.86371 9.42821C2.85226 9.43398 2.8445 9.43456 2.83796 9.43399C2.82995 9.4333 2.82115 9.43035 2.81378 9.42572L3.30315 6.71737L3.36158 6.39396L3.12052 6.17058L1.0557 4.25724C1.0578 4.25678 1.06023 4.25634 1.063 4.25596L1.06342 4.2559L3.93841 3.85733Z" fill="white" stroke="#7AC751" stroke-width="1.2"/>
</svg>
