<svg width="16.947357" height="13.768066" viewBox="0 0 16.9474 13.7681" fill="none" xmlns="http://www.w3.org/2000/svg" xmlns:xlink="http://www.w3.org/1999/xlink">
	<desc>
			Created with Pixso.
	</desc>
	<defs/>
	<path id="ic-twitter" d="M16.9474 1.6355C16.3241 1.9043 15.6459 2.0979 14.9473 2.1731C15.6726 1.74219 16.2158 1.06152 16.4749 0.258789C15.7943 0.663574 15.0487 0.94751 14.2711 1.0979C13.9462 0.750488 13.5532 0.473633 13.1165 0.284668C12.6799 0.0959473 12.2091 -0.000976562 11.7334 0C9.80875 0 8.26086 1.56006 8.26086 3.47461C8.26086 3.74341 8.29343 4.01221 8.34641 4.271C5.46448 4.12036 2.89413 2.74341 1.18536 0.635498C0.873993 1.16724 0.710846 1.77271 0.71283 2.38916C0.71283 3.59473 1.3259 4.65796 2.26074 5.2832C1.70981 5.26147 1.17181 5.11011 0.69043 4.84131L0.69043 4.88403C0.69043 6.57251 1.88394 7.97168 3.47461 8.29346C3.17593 8.37109 2.86871 8.41064 2.56012 8.41162C2.33405 8.41162 2.12021 8.38916 1.90433 8.35864C2.34424 9.73535 3.62534 10.7354 5.15082 10.7681C3.95731 11.7029 2.46237 12.2527 0.839111 12.2527C0.547882 12.2527 0.279022 12.2427 0 12.21C1.53973 13.1978 3.36667 13.7681 5.33411 13.7681C11.7212 13.7681 15.2162 8.47681 15.2162 3.88403C15.2162 3.7334 15.2162 3.58252 15.206 3.43188C15.8822 2.93701 16.4749 2.32397 16.9474 1.6355Z" fill="#555555" fill-opacity="1.000000" fill-rule="nonzero"/>
</svg>
