<svg xmlns="http://www.w3.org/2000/svg" width="32.2" height="32.2" fill="none"><defs><linearGradient id="a" x1="16.1" x2="16.1" y1="0" y2="32.2" gradientUnits="userSpaceOnUse"><stop stop-color="#FEFEFF" stop-opacity=".29"/><stop offset="1" stop-color="#FFF" stop-opacity=".4"/></linearGradient><linearGradient id="b" x1="-1.544" x2="32.2" y1="2.159" y2="33.216" gradientUnits="userSpaceOnUse"><stop stop-color="#FFF" stop-opacity=".078"/><stop offset="1" stop-color="#FFF" stop-opacity=".071"/></linearGradient></defs><circle cx="16.1" cy="16.1" r="16.1" fill="url(#a)" fill-opacity=".05"/><circle cx="16.1" cy="16.1" r="15.6" stroke="url(#b)"/><path fill="#555" d="M24.574 10.957a6.961 6.961 0 0 1-2 .537A3.465 3.465 0 0 0 24.1 9.58a6.86 6.86 0 0 1-2.203.84A3.467 3.467 0 0 0 19.36 9.32a3.472 3.472 0 0 0-3.473 3.475c0 .269.033.538.086.796a9.87 9.87 0 0 1-7.161-3.635 3.448 3.448 0 0 0-.473 1.753c0 1.206.613 2.27 1.548 2.894a3.504 3.504 0 0 1-1.57-.441v.042a3.473 3.473 0 0 0 2.784 3.41 3.68 3.68 0 0 1-.915.118c-.226 0-.44-.023-.655-.053a3.48 3.48 0 0 0 3.246 2.41 6.961 6.961 0 0 1-4.312 1.484c-.29 0-.56-.01-.839-.043a9.834 9.834 0 0 0 5.334 1.558c6.387 0 9.883-5.29 9.883-9.884 0-.15 0-.301-.01-.452a7.478 7.478 0 0 0 1.74-1.796Z"/></svg>