<svg xmlns="http://www.w3.org/2000/svg" width="58" height="58" fill="none"><g fill="#7AC751" clip-path="url(#a)"><path d="M55.364 29.243v-8.151c0-2.765-2.144-5.013-4.853-5.23L42.94 2.638a5.21 5.21 0 0 0-3.19-2.46 5.18 5.18 0 0 0-3.968.531L9.831 15.82H5.274A5.278 5.278 0 0 0 0 21.09v31.636A5.278 5.278 0 0 0 5.274 58H50.09a5.278 5.278 0 0 0 5.273-5.273v-8.151C56.894 44.03 58 42.58 58 40.863v-7.91c0-1.715-1.105-3.165-2.636-3.71ZM47.447 15.82H35.958l8.617-5.017 2.872 5.017Zm-4.182-7.305L30.72 15.82h-5.204l16.45-9.577 1.3 2.272ZM37.11 2.99a2.55 2.55 0 0 1 1.958-.264c.674.18 1.235.615 1.584 1.224l.002.005-20.379 11.865h-5.204l22.04-12.83Zm15.617 49.738a2.64 2.64 0 0 1-2.636 2.637H5.274a2.64 2.64 0 0 1-2.637-2.637V21.092a2.64 2.64 0 0 1 2.637-2.637H50.09a2.64 2.64 0 0 1 2.636 2.637V29h-7.909c-4.36 0-7.909 3.548-7.909 7.91 0 4.36 3.548 7.908 7.91 7.908h7.908v7.91Zm2.637-11.863a1.32 1.32 0 0 1-1.318 1.318h-9.228a5.278 5.278 0 0 1-5.272-5.273 5.278 5.278 0 0 1 5.272-5.272h9.228c.727 0 1.318.59 1.318 1.318v7.909Z"/><path d="M44.818 34.273a2.64 2.64 0 0 0-2.636 2.636 2.64 2.64 0 0 0 2.636 2.637 2.64 2.64 0 0 0 2.636-2.636 2.64 2.64 0 0 0-2.636-2.637Z"/></g><defs><clipPath id="a"><path fill="#fff" d="M0 0h58v58H0z"/></clipPath></defs></svg>