<svg xmlns="http://www.w3.org/2000/svg" width="11" height="10" fill="none"><path fill="#FFF" d="M4.24-.22 2.96 2.26l-2.88.4c-.51.07-.72.67-.35 1.02l2.08 1.93-.49 2.72c-.09.49.46.86.91.63l2.58-1.29 2.57 1.29c.45.23 1-.14.91-.63L7.8 5.61l2.08-1.93c.37-.35.17-.95-.35-1.02l-2.87-.4L5.37-.22c-.23-.44-.9-.45-1.13 0Z"/><path fill="#CCC" fill-rule="evenodd" d="m2.96 2.26-2.88.4c-.51.07-.72.67-.35 1.02l2.08 1.93-.49 2.72c-.09.49.46.86.91.63l2.58-1.29 2.57 1.29c.45.23 1-.14.91-.63L7.8 5.61l2.08-1.93c.37-.35.17-.95-.35-1.02l-2.87-.4L5.37-.22c-.23-.44-.9-.45-1.13 0L2.96 2.26ZM1.49 3.67l1.63-.22.62-.09L4.81 1.3l1.07 2.06 2.24.31-1.62 1.5.4 2.21-2.09-1.05-2.1 1.05.4-2.21-1.62-1.5Z"/></svg>