<svg width="10.000000" height="10.000000" viewBox="0 0 10 10" fill="none" xmlns="http://www.w3.org/2000/svg" xmlns:xlink="http://www.w3.org/1999/xlink">
	<desc>
			Created with Pixso.
	</desc>
	<defs/>
	<path id="star" d="M4.46 0.34L3.24 2.93L0.51 3.34C0.02 3.42 -0.18 4.05 0.18 4.41L2.15 6.42L1.68 9.26C1.6 9.78 2.12 10.16 2.55 9.92L5 8.58L7.44 9.92C7.87 10.16 8.39 9.78 8.31 9.26L7.84 6.42L9.81 4.41C10.17 4.05 9.97 3.42 9.48 3.34L6.75 2.93L5.53 0.34C5.31 -0.12 4.68 -0.12 4.46 0.34Z" fill="#FFFFFF" fill-opacity="1.000000" fill-rule="nonzero"/>
	<path id="star" d="M3.24 2.93L0.51 3.34C0.02 3.42 -0.18 4.05 0.18 4.41L2.15 6.42L1.68 9.26C1.6 9.78 2.12 10.16 2.55 9.92L5 8.58L7.44 9.92C7.87 10.16 8.39 9.78 8.31 9.26L7.84 6.42L9.81 4.41C10.17 4.05 9.97 3.42 9.48 3.34L6.75 2.93L5.53 0.34C5.31 -0.12 4.68 -0.12 4.46 0.34L3.24 2.93ZM1.81 4.36L3.42 4.11L4.05 4.02L5 2.02L5.94 4.02L8.18 4.36L6.56 6.02L6.93 8.27L5 7.21L3.06 8.27L3.43 6.02L1.81 4.36Z" fill="#CCCCCC" fill-opacity="1.000000" fill-rule="evenodd"/>
</svg>
